<?xml version="1.0" encoding="UTF-8" standalone="no"?>
<svg
   xmlns:dc="http://purl.org/dc/elements/1.1/"
   xmlns:cc="http://creativecommons.org/ns#"
   xmlns:rdf="http://www.w3.org/1999/02/22-rdf-syntax-ns#"
   xmlns:svg="http://www.w3.org/2000/svg"
   xmlns="http://www.w3.org/2000/svg"
   xmlns:sodipodi="http://sodipodi.sourceforge.net/DTD/sodipodi-0.dtd"
   xmlns:inkscape="http://www.inkscape.org/namespaces/inkscape"
   width="210mm"
   height="297mm"
   viewBox="0 0 210 297"
   version="1.1"
   id="svg8"
   inkscape:version="1.0.1 (3bc2e813f5, 2020-09-07)"
   sodipodi:docname="trashred.svg">
  <defs
     id="defs2" />
  <sodipodi:namedview
     id="base"
     pagecolor="#ffffff"
     bordercolor="#666666"
     borderopacity="1.0"
     inkscape:pageopacity="0.0"
     inkscape:pageshadow="2"
     inkscape:zoom="0.35"
     inkscape:cx="400"
     inkscape:cy="560"
     inkscape:document-units="mm"
     inkscape:current-layer="layer1"
     inkscape:document-rotation="0"
     showgrid="false"
     inkscape:window-width="1512"
     inkscape:window-height="1040"
     inkscape:window-x="104"
     inkscape:window-y="0"
     inkscape:window-maximized="0" />
  <metadata
     id="metadata5">
    <rdf:RDF>
      <cc:Work
         rdf:about="">
        <dc:format>image/svg+xml</dc:format>
        <dc:type
           rdf:resource="http://purl.org/dc/dcmitype/StillImage" />
        <dc:title></dc:title>
      </cc:Work>
    </rdf:RDF>
  </metadata>
  <g
     inkscape:label="Layer 1"
     inkscape:groupmode="layer"
     id="layer1">
    <g
       transform="matrix(0.01885953,0,0,-0.01885953,12.019632,263.5532)"
       fill="#009688"
       stroke="none"
       id="g22"
       style="fill:#ff0000">
      <path
         d="m 7010,12784 c -412,-64 -775,-356 -919,-739 -123,-329 -97,-688 71,-982 394,-687 1325,-809 1883,-246 348,351 433,890 210,1333 -231,458 -735,714 -1245,634 z"
         id="path12"
         style="fill:#ff0000" />
      <path
         d="m 2234,10415 c -54,-28 -70,-92 -34,-138 26,-33 27,-33 525,-182 231,-70 582,-175 780,-235 198,-60 525,-158 728,-219 202,-61 530,-160 730,-220 199,-60 529,-160 732,-221 204,-61 384,-115 401,-121 18,-5 34,-18 37,-27 3,-9 34,-80 70,-157 273,-593 459,-1226 517,-1760 11,-106 26,-140 71,-161 31,-15 3115,138 3148,155 24,13 51,61 51,90 0,39 -70,290 -123,442 -289,825 -803,1907 -1165,2454 -108,162 -196,273 -225,284 -13,5 -990,12 -2173,15 -1182,3 -2574,8 -3094,11 -851,5 -948,4 -976,-10 z"
         id="path14"
         style="fill:#ff0000" />
      <path
         d="m 4113,9082 c -45,-26 -119,-78 -163,-117 -45,-38 -104,-84 -132,-102 -144,-92 -430,-150 -748,-154 -101,-1 -128,3 -220,30 -136,39 -311,99 -481,162 -124,47 -139,50 -175,40 -65,-17 -88,-52 -152,-226 -91,-247 -179,-410 -309,-572 -153,-192 -377,-373 -627,-508 -173,-94 -170,-151 19,-340 122,-122 209,-185 347,-250 178,-83 341,-115 593,-115 186,0 313,12 648,64 354,55 403,60 572,60 174,0 276,-16 349,-55 98,-52 196,-6 196,92 0,36 -23,84 -45,92 -21,9 -18,42 8,107 85,207 410,542 917,945 91,73 171,139 178,148 24,29 25,89 3,125 -37,57 -65,60 -271,28 l -85,-13 -29,26 c -68,62 -140,192 -206,371 -39,106 -88,210 -100,210 -3,0 -42,-21 -87,-48 z"
         id="path16"
         style="fill:#ff0000" />
      <path
         d="m 6773,6939 c -18,-5 -40,-21 -49,-35 -12,-17 -92,-507 -270,-1652 C 6315,4357 6079,2843 5930,1887 5782,931 5660,133 5660,113 c 0,-73 91,-119 147,-75 13,9 518,928 1123,2042 606,1114 1122,2062 1147,2108 24,46 47,82 49,80 2,-2 62,-249 133,-548 72,-300 202,-849 291,-1220 89,-371 206,-862 260,-1090 54,-228 149,-624 210,-880 67,-284 118,-475 129,-490 25,-35 82,-48 115,-26 14,9 32,26 40,39 9,15 26,148 50,402 20,209 56,592 81,850 68,703 120,1242 175,1815 27,283 67,702 89,930 23,228 81,838 131,1355 50,517 100,1034 111,1149 16,165 18,214 9,237 -23,56 -33,57 -362,68 -581,20 -2154,68 -2488,76 -129,3 -248,8 -265,10 -16,2 -45,-1 -62,-6 z"
         id="path18"
         style="fill:#ff0000" />
      <path
         d="M 152,6624 C 64,6580 0,6478 0,6380 c 0,-108 87,-223 191,-254 29,-9 63,-16 76,-16 27,0 19,34 93,-370 32,-179 86,-473 120,-655 34,-181 92,-499 130,-705 38,-206 96,-523 130,-705 34,-181 119,-645 190,-1030 71,-385 161,-873 200,-1085 39,-212 111,-602 160,-867 49,-265 96,-495 104,-510 17,-34 40,-55 83,-77 29,-15 165,-16 1486,-16 h 1454 l 45,30 c 31,21 51,43 62,71 12,28 97,859 301,2937 157,1593 287,2911 290,2929 5,28 11,33 59,47 62,18 137,80 166,136 69,135 6,309 -132,371 -51,22 -66,23 -403,30 -192,4 -1306,8 -2476,8 l -2125,1 z"
         id="path20"
         style="fill:#ff0000" />
    </g>
  </g>
</svg>
